<?xml version="1.0" encoding="utf-8"?>
<!-- Generator: Adobe Illustrator 21.1.0, SVG Export Plug-In . SVG Version: 6.00 Build 0)  -->
<svg version="1.1" id="Layer_1" xmlns="http://www.w3.org/2000/svg" xmlns:xlink="http://www.w3.org/1999/xlink" x="0px" y="0px"
	 viewBox="0 0 576 360" style="enable-background:new 0 0 576 360;" xml:space="preserve">
<style type="text/css">
	.st0{fill-rule:evenodd;clip-rule:evenodd;fill:#6CB33F;}
	.st1{fill:#6CB33F;}
	.st2{fill:#007DC3;}
</style>
<g>
	<path class="st0" d="M90.6,65.3c14.3,8.2,11.5,34,15.8,52.5c-9-1.2-4.1-11-5.3-16.4C98.3,87.7,90.2,74.7,90.6,65.3z"/>
	<path class="st0" d="M95.4,60.2c8.3,4.4,17.1,9.1,25,14.4c7.1,4.7,16.3,9.5,20.1,17.8c-17.9-6-26.9-21.4-45-27.2
		C95.5,63.5,95.5,61.9,95.4,60.2z"/>
	<path class="st0" d="M106.5,122.7c5.3-1.5,3.5,4.2,6.7,4.8c18.6-4.3,39.1,7.5,59.6,13.7c17.9,5.4,36.7,6.7,48.1,17.2
		c-41.7-3.7-73.6-31.9-114.2-25.9C104.4,130.5,104.3,124.8,106.5,122.7z"/>
	<path class="st0" d="M191,58.4c0.4-4.4-9.2,1.7-6.7-4.8c3.5-3.6,9.2-1,11.6,1.4c-4.9,16.2-21.6,24.4-34,33.6
		c-12.9,9.6-27,16.9-35.7,30.3c-1.9-0.2-2.9,0.4-3.3,1.7c-4.8-1.3-1.9-2.4-1.8-6.6C142.8,94,166.2,75.5,191,58.4z"/>
	<path class="st0" d="M222.3,145.2c-7.5-17-23.3-32.9-30.7-52.2c-2.1-5.4-7.2-12.8-2-18.1c4.6,1.9,4.9,7.5,6.8,11.4
		c8.5,17.3,20,40,32.4,57.1c4.6,6.3,13.2,12.5,10.3,21.2c-8.2-2.7-8.9-13.2-15.2-17.9c-1.9,1.4-4.4,2.3-8.2,1.8
		c-11-7.6-21.4-15.8-31.8-24.1c-10-8-21.2-15-30.1-24.2C182.9,108.8,194.5,135.5,222.3,145.2z"/>
	<path class="st0" d="M83.9,60.4c-0.1-3.3-0.1-6.6-0.2-9.9c4.9-0.1,9.9-0.2,14.8-0.3c4.5,2.4,15.9,5.4,24.8,6.1
		c19,1.5,42.2-5,52.9,5.6c-31.6,3.6-55.6-1.7-84.2-5C92.2,58.8,89.4,64.9,83.9,60.4z"/>
</g>
<g>
	<path class="st1" d="M12.4,274v8c1.3-1.6,3.2-2.5,5.6-2.5c5.4,0,7.3,3.1,7.3,9.3v9.2H23v-9.3c0-4.6-1-7-5.2-7
		c-2.1,0-3.8,0.9-4.7,2.5c-0.8,1.4-0.8,2.9-0.8,5v8.8h-2.3v-24H12.4z"/>
	<path class="st1" d="M37.2,279.3c5.4,0,9.5,4.4,9.5,9.4c0,5.4-4.1,9.8-9.3,9.8c-5.4,0-9.4-4.5-9.4-9.6
		C28,283.5,32.3,279.3,37.2,279.3z M37.4,296.3c3.8,0,6.9-3.1,6.9-7.4c0-4.4-3.1-7.4-7.1-7.4c-3.5,0-6.8,3-6.8,7.4
		C30.4,293.1,33.4,296.3,37.4,296.3z"/>
	<path class="st1" d="M50.7,292.3C50.7,292.3,50.7,292.4,50.7,292.3c0,2.4,1.6,4,3.4,4c1.8,0,3.2-1.3,3.2-3c0-1.9-1.1-2.8-3.3-3.6
		c-2.8-1-4.9-1.9-4.9-5.2c0-2.8,2.4-5.1,5.3-5.1c3.1,0,5,1.8,5.2,5H57c-0.1-1.8-1.1-2.7-2.8-2.7c-1.6,0-2.7,1.2-2.7,2.7
		c0,1.1,0.4,1.8,1.4,2.4c1.1,0.7,2.4,0.8,3.6,1.4c2.3,1,3.3,2.5,3.3,5c0,3.1-2.4,5.4-5.8,5.4c-3.3,0-5.6-2.3-5.7-6.2H50.7z"/>
	<path class="st1" d="M64.9,279.9v3c1.3-2,4-3.4,6.8-3.4c5.5,0,9.5,4.2,9.5,9.6c0,5.2-3.9,9.5-9.3,9.5c-2.9,0-5.4-1.2-6.9-3.3
		c0,0.4,0,0.8,0,1.3c0,0.8,0,1.8,0,2.7v4.8h-2.3v-24H64.9z M71.7,296.3c3.7,0,7-3,7-7.2c0-4.4-3.3-7.5-7-7.5c-3.6,0-6.8,3.3-6.8,7.2
		C64.9,293.1,68.2,296.3,71.7,296.3z"/>
	<path class="st1" d="M83.9,277.7V274h2.3v3.8H83.9z M83.9,279.9h2.3V298h-2.3V279.9z"/>
	<path class="st1" d="M91.6,282.2h-3.4v-2.3h3.4V274H94v5.9h3.4v2.3H94V298h-2.3V282.2z"/>
	<path class="st1" d="M107.6,298.5c-5.5,0-9.3-4.3-9.3-9.5c0-5.3,4-9.6,9.5-9.6c2.8,0,5.2,1.2,6.8,3.3v-2.9h2.3V298h-2.3v-2.9
		C113.2,297.2,110.6,298.5,107.6,298.5z M107.8,281.6c-3.7,0-7,3.1-7,7.5c0,4.2,3.3,7.2,7,7.2c3.5,0,6.9-3.2,6.9-7.5
		C114.6,284.9,111.3,281.6,107.8,281.6z"/>
	<path class="st1" d="M120.6,274h2.3v24h-2.3V274z"/>
	<path class="st1" d="M137.2,298v-16.1h-2.4v-2h2.3c0-0.2,0-0.3,0-0.5c0-3.8,1.9-5.6,5.9-5.6c0.1,0,0.1,0,0.2,0v2.1
		c-2.8,0-3.8,1-3.8,3.6c0,0.2,0,0.3,0,0.5h3.8v2h-3.8V298H137.2z"/>
	<path class="st1" d="M153.8,279.3c5.4,0,9.5,4.4,9.5,9.4c0,5.4-4.1,9.8-9.3,9.8c-5.4,0-9.4-4.5-9.4-9.6
		C144.5,283.5,148.9,279.3,153.8,279.3z M153.9,296.3c3.8,0,6.9-3.1,6.9-7.4c0-4.4-3.1-7.4-7.1-7.4c-3.5,0-6.8,3-6.8,7.4
		C147,293.1,150,296.3,153.9,296.3z"/>
	<path class="st1" d="M166,298v-18.2h2.2v2.1c1.2-1.7,2.5-2.3,4.3-2.4v2.5c-3.2,0.3-4.1,1.9-4.1,4.9v11H166z"/>
	<path class="st1" d="M192.2,281.6c-3.7,0-6.7,3.1-6.7,7.4c0,4.2,3,7.3,6.8,7.3c2.7,0,5-1.4,6.2-4h2.6c-1.4,4-4.6,6.2-8.7,6.2
		c-5.4,0-9.4-4.4-9.4-9.5c0-5.4,4.2-9.6,9.4-9.6c3.9,0,7.1,2.2,8.6,6.1h-2.6C197.1,282.8,195.1,281.6,192.2,281.6z"/>
	<path class="st1" d="M206.7,274v8c1.3-1.6,3.2-2.5,5.6-2.5c5.4,0,7.3,3.1,7.3,9.3v9.2h-2.3v-9.3c0-4.6-1-7-5.2-7
		c-2.1,0-3.8,0.9-4.7,2.5c-0.8,1.4-0.8,2.9-0.8,5v8.8h-2.3v-24H206.7z"/>
	<path class="st1" d="M223.4,277.7V274h2.3v3.8H223.4z M223.4,279.9h2.3V298h-2.3V279.9z"/>
	<path class="st1" d="M229.5,274h2.3v24h-2.3V274z"/>
	<path class="st1" d="M250.8,278.7V274h2.3v24h-2.3v-2.7c-1.7,2.1-4.2,3.2-6.9,3.2c-5.2,0-9.3-4.2-9.3-9.6c0-5.2,3.8-9.5,9.3-9.5
		c2.8,0,5.2,1.1,6.9,3.3C250.8,281.1,250.8,279.7,250.8,278.7z M244,281.6c-3.7,0-7,3-7,7.2c0,4.4,3.3,7.5,7,7.5
		c3.5,0,6.8-3.2,6.8-7.2C250.9,284.8,247.5,281.6,244,281.6z"/>
	<path class="st1" d="M256.8,298v-18.2h2.2v2.1c1.2-1.7,2.5-2.3,4.3-2.4v2.5c-3.2,0.3-4.1,1.9-4.1,4.9v11H256.8z"/>
	<path class="st1" d="M266.7,289.7c0.3,4.1,3.2,6.6,7,6.6c2.7,0,5-1.4,6.2-4h2.6c-1.7,4.1-4.8,6.3-8.8,6.3c-5.4,0-9.4-4.5-9.4-9.6
		c0-5.4,3.9-9.6,9.5-9.6c5.4,0,9.3,4.1,9.3,10.1c0,0.1,0,0.1,0,0.2H266.7z M273.5,281.6c-3.4,0-6.2,2.3-6.7,6.2h13.8
		C279.7,283.6,277.3,281.6,273.5,281.6z"/>
	<path class="st1" d="M288.1,279.9v2.1c1.5-1.7,3.3-2.4,5.7-2.4c2.7,0,4.8,1,6,2.9c1,1.6,1.2,3.5,1.2,6.2v9.5h-2.3v-10.2
		c0-4.2-1.5-6.1-5.2-6.1c-2.1,0-3.8,0.9-4.7,2.5c-0.8,1.4-0.8,2.9-0.8,5v8.8h-2.3v-18.2H288.1z"/>
	<path class="st1" d="M322.6,298.5c-5.5,0-9.3-4.3-9.3-9.5c0-5.3,4-9.6,9.5-9.6c2.8,0,5.2,1.2,6.8,3.3v-2.9h2.3V298h-2.3v-2.9
		C328.1,297.2,325.5,298.5,322.6,298.5z M322.7,281.6c-3.7,0-7,3.1-7,7.5c0,4.2,3.3,7.2,7,7.2c3.5,0,6.9-3.2,6.9-7.5
		C329.5,284.9,326.2,281.6,322.7,281.6z"/>
	<path class="st1" d="M337.7,279.9v2.1c1.5-1.7,3.3-2.4,5.7-2.4c2.7,0,4.8,1,6,2.9c1,1.6,1.2,3.5,1.2,6.2v9.5h-2.3v-10.2
		c0-4.2-1.5-6.1-5.2-6.1c-2.1,0-3.8,0.9-4.7,2.5c-0.8,1.4-0.8,2.9-0.8,5v8.8h-2.3v-18.2H337.7z"/>
	<path class="st1" d="M369.6,278.7V274h2.3v24h-2.3v-2.7c-1.7,2.1-4.2,3.2-6.9,3.2c-5.2,0-9.3-4.2-9.3-9.6c0-5.2,3.8-9.5,9.3-9.5
		c2.8,0,5.2,1.1,6.9,3.3C369.6,281.1,369.6,279.7,369.6,278.7z M362.8,281.6c-3.6,0-7,3-7,7.2c0,4.4,3.3,7.5,7,7.5
		c3.5,0,6.8-3.2,6.8-7.2C369.7,284.8,366.3,281.6,362.8,281.6z"/>
	<path class="st1" d="M393.5,298.5c-5.5,0-9.3-4.3-9.3-9.5c0-5.3,4-9.6,9.5-9.6c2.8,0,5.2,1.2,6.8,3.3v-2.9h2.3V298h-2.3v-2.9
		C399.1,297.2,396.5,298.5,393.5,298.5z M393.7,281.6c-3.7,0-7,3.1-7,7.5c0,4.2,3.3,7.2,7,7.2c3.5,0,6.9-3.2,6.9-7.5
		C400.5,284.9,397.2,281.6,393.7,281.6z"/>
	<path class="st1" d="M421.7,278.7V274h2.3v24h-2.3v-2.7c-1.7,2.1-4.2,3.2-6.9,3.2c-5.2,0-9.3-4.2-9.3-9.6c0-5.2,3.8-9.5,9.3-9.5
		c2.8,0,5.2,1.1,6.9,3.3C421.7,281.1,421.7,279.7,421.7,278.7z M414.9,281.6c-3.6,0-7,3-7,7.2c0,4.4,3.3,7.5,7,7.5
		c3.5,0,6.8-3.2,6.8-7.2C421.8,284.8,418.4,281.6,414.9,281.6z"/>
	<path class="st1" d="M436,279.3c5.4,0,9.5,4.4,9.5,9.4c0,5.4-4.1,9.8-9.3,9.8c-5.4,0-9.4-4.5-9.4-9.6
		C426.8,283.5,431.1,279.3,436,279.3z M436.2,296.3c3.8,0,6.9-3.1,6.9-7.4c0-4.4-3.1-7.4-7.1-7.4c-3.5,0-6.8,3-6.8,7.4
		C429.2,293.1,432.2,296.3,436.2,296.3z"/>
	<path class="st1" d="M448.3,274h2.3v24h-2.3V274z"/>
	<path class="st1" d="M455.8,289.7c0.3,4.1,3.2,6.6,7,6.6c2.7,0,5-1.4,6.2-4h2.6c-1.7,4.1-4.8,6.3-8.8,6.3c-5.4,0-9.4-4.5-9.4-9.6
		c0-5.4,3.9-9.6,9.5-9.6c5.4,0,9.3,4.1,9.3,10.1c0,0.1,0,0.1,0,0.2H455.8z M462.6,281.6c-3.4,0-6.2,2.3-6.7,6.2h13.8
		C468.7,283.6,466.4,281.6,462.6,281.6z"/>
	<path class="st1" d="M476.1,292.3C476.1,292.3,476.1,292.4,476.1,292.3c0,2.4,1.6,4,3.4,4c1.8,0,3.2-1.3,3.2-3
		c0-1.9-1.1-2.8-3.3-3.6c-2.8-1-4.9-1.9-4.9-5.2c0-2.8,2.4-5.1,5.3-5.1c3.1,0,5,1.8,5.2,5h-2.5c-0.1-1.8-1.1-2.7-2.8-2.7
		c-1.6,0-2.7,1.2-2.7,2.7c0,1.1,0.4,1.8,1.4,2.4c1.1,0.7,2.4,0.8,3.6,1.4c2.3,1,3.3,2.5,3.3,5c0,3.1-2.4,5.4-5.8,5.4
		c-3.3,0-5.6-2.3-5.7-6.2H476.1z"/>
	<path class="st1" d="M496.2,281.6c-3.6,0-6.7,3.1-6.7,7.4c0,4.2,3,7.3,6.8,7.3c2.7,0,5-1.4,6.2-4h2.6c-1.4,4-4.6,6.2-8.7,6.2
		c-5.4,0-9.4-4.4-9.4-9.5c0-5.4,4.2-9.6,9.4-9.6c3.9,0,7.1,2.2,8.6,6.1h-2.6C501.1,282.8,499.1,281.6,496.2,281.6z"/>
	<path class="st1" d="M509.9,289.7c0.3,4.1,3.2,6.6,7,6.6c2.7,0,5-1.4,6.2-4h2.6c-1.7,4.1-4.8,6.3-8.8,6.3c-5.4,0-9.4-4.5-9.4-9.6
		c0-5.4,3.9-9.6,9.5-9.6c5.4,0,9.3,4.1,9.3,10.1c0,0.1,0,0.1,0,0.2H509.9z M516.7,281.6c-3.4,0-6.2,2.3-6.7,6.2h13.8
		C522.8,283.6,520.5,281.6,516.7,281.6z"/>
	<path class="st1" d="M531.2,279.9v2.1c1.5-1.7,3.3-2.4,5.7-2.4c2.7,0,4.8,1,6,2.9c1,1.6,1.2,3.5,1.2,6.2v9.5h-2.3v-10.2
		c0-4.2-1.5-6.1-5.2-6.1c-2.1,0-3.8,0.9-4.7,2.5c-0.8,1.4-0.8,2.9-0.8,5v8.8H529v-18.2H531.2z"/>
	<path class="st1" d="M549.4,282.2H546v-2.3h3.4V274h2.3v5.9h3.4v2.3h-3.4V298h-2.3V282.2z"/>
	<path class="st1" d="M558.3,292.3C558.3,292.3,558.3,292.4,558.3,292.3c0,2.4,1.6,4,3.4,4c1.8,0,3.2-1.3,3.2-3
		c0-1.9-1.1-2.8-3.3-3.6c-2.8-1-4.9-1.9-4.9-5.2c0-2.8,2.4-5.1,5.3-5.1c3.1,0,5,1.8,5.2,5h-2.5c-0.1-1.8-1.1-2.7-2.8-2.7
		c-1.6,0-2.7,1.2-2.7,2.7c0,1.1,0.4,1.8,1.4,2.4c1.1,0.7,2.4,0.8,3.6,1.4c2.3,1,3.3,2.5,3.3,5c0,3.1-2.4,5.4-5.8,5.4
		c-3.3,0-5.6-2.3-5.7-6.2H558.3z"/>
</g>
<g>
	<g>
		<path class="st2" d="M191,201.3c-8,0-14.6,3.3-19,9.5c-3.4-5.7-10.5-9.5-18.8-9.5c-7,0-12.6,2.4-16.7,7.2v-6.1h-6.8V256h6.8v-26.1
			c0-6.2,0-10.8,2.3-14.8c2.7-4.7,7.5-7.3,13.8-7.3c10.6,0,15.3,6,15.3,18.1v30h6.5v-26.1c0-6.2,0-10.8,2.3-14.8
			c2.7-4.7,7.5-7.3,13.6-7.3c11.5,0,15,6.7,15,19.7V256h6.6v-27.1C211.9,210.5,206.3,201.3,191,201.3z M251.5,201.2
			c-8.5,0-15.3,3.3-21.1,10.2V185h-6.8v71h6.8v-8.1c5.5,6.4,12,9.5,20,9.5c16.4,0,28.1-12.5,28.1-28.3
			C278.5,213.7,266.8,201.2,251.5,201.2z M250.5,251c-10.3,0-20.1-9.6-20.1-21.3c0-12.6,9.3-22.2,20.3-22.2
			c10.8,0,20.6,8.9,20.6,21.3C271.3,241.9,261.5,251,250.5,251z M36.1,207.3c8.5,0,14.4,3.8,18.6,11.5h7.6
			c-4.5-11.6-13.9-18-25.4-18c-15.5,0-27.9,12.6-27.9,28.5c0,15.1,11.7,28.2,27.7,28.2c12.1,0,21.4-6.6,25.6-18.3h-7.6
			c-3.4,7.6-10.2,11.7-18.3,11.7c-11.4,0-20.2-9.3-20.2-21.7C16.2,216.5,25.3,207.3,36.1,207.3z M111.2,228.7c0,6.3,0,11-2.3,14.9
			c-2.8,4.7-7.6,7.3-13.8,7.3c-12,0-15.3-7-15.3-20.1v-28.5H73v28c0,18,5.3,27.1,21.9,27.1c7.1,0,12-2,16.3-7.2v5.8h6.9v-53.6h-6.9
			V228.7z M439.6,210.9c-4.6-6.3-11.7-9.8-20-9.8c-16.4,0-28.1,12.5-28.1,28.3c0,15.3,11.3,28,27.5,28c8.6,0,16.3-3.8,20.6-9.9v8.5
			h6.7v-53.6h-6.7V210.9z M419.2,251c-10.8,0-20.6-8.9-20.6-21.3c0-13.1,9.8-22.2,20.8-22.2c10.3,0,20.2,9.6,20.2,21.3
			C439.6,241.6,429.6,251,419.2,251z M355.6,208.5v-6.2h-6.5V256h7v-32.3c0-9,2.7-13.8,12.1-14.6v-7.5
			C363,201.7,359.1,203.7,355.6,208.5z M481.7,201.3c-7.1,0-12.6,2.3-16.9,7.2v-6.1h-6.7V256h6.7v-26.1c0-6.2,0-10.8,2.3-14.8
			c2.7-4.7,7.5-7.3,13.8-7.3c11,0,15.3,5.8,15.3,18.1v30h6.8v-28.1c0-7.8-0.4-13.5-3.5-18.2C496,204.4,489.7,201.3,481.7,201.3z
			 M313,200.9c-16.8,0-28.2,12.3-28.2,28.3c0,15.1,11.8,28.4,27.9,28.4c11.7,0,21-6.5,26-18.5h-7.8c-3.6,7.7-10.5,11.9-18.4,11.9
			c-11.1,0-19.7-7.6-20.6-19.6h48.4v-0.5C340.4,212.8,328.9,200.9,313,200.9z M292.2,225.5c1.7-11.4,9.7-18.2,19.9-18.2
			c11.2,0,18.2,6.2,20.8,18.2H292.2z M542.6,163.6c-16.7-10.6-38.9-10.7-57.9-8.5c-24.5,2.8-47.9,12.4-71.4,19.2
			c-31.9,9.2-65.9,13.9-99.1,13.7c-31.2-0.2-69.8-3.4-89.5-34.8c-1.4-2.2-6.3-2.6-5.3-0.7c18.6,27.6,44,35.5,71.1,38.1
			c28.2,2.8,56.9,0.5,84.8-4.3V256h6.9V185c1.6-0.3,3.2-0.6,4.8-0.9c45-9,88.7-33.5,135.5-23.5c24.4,5.2,33.6,26.4,36.7,49.4
			c-4.9-5.8-11.7-8.8-19.7-8.8c-16.2,0-27.5,12.7-27.5,28c0,15.9,12,28.3,27.5,28.3c7.9,0,15.5-3.4,20.4-9.5v8.1h7.1v-11.3
			C568.4,216.6,568.1,179.7,542.6,163.6z M540,251c-11,0-20.8-9.1-20.8-22.2c0-12.4,9.8-21.3,20.6-21.3c10.4,0,20.4,9.4,20.4,22.2
			C560.2,241.4,550.3,251,540,251z"/>
	</g>
</g>
</svg>
