<svg xmlns="http://www.w3.org/2000/svg" viewBox="0 0 198.6 32.3"><path d="M81.5 12.2c-.1-.8-.2-1.6-.2-2.4-.5-.1-1.9-.2-2.4-.2-2.1 0-3.7 1.3-3.7 3.4 0 4 4.9 3.1 4.9 6 0 1.2-.9 1.9-2 1.9-1.6 0-2.4-1.2-2.6-2.6l-.5.1c.1.8.2 1.7.3 2.5.8.4 1.7.7 2.6.7 2.1 0 4-1.2 4-3.5 0-4-5-3.2-5-5.9 0-1.3.7-2.1 2-2.1 1.1 0 1.8 1 2 2.1h.6zM90.4 21.4c.9 0 2.9-.1 4.4-.1 1.5 0 3.4.1 4.5.1.2-.9.3-1.8.6-2.6l-.5-.1c-.5 1.9-1.4 2-3.4 2-1.1 0-2 0-2-1.1v-3.9h2c1.1 0 1.2.6 1.3 1.6l.5-.1c0-.6-.1-1.3-.1-1.9 0-.7 0-1.3.1-1.9h-.5c-.1.9-.3 1.5-1.3 1.5h-2v-4.4h2.3c1.7 0 1.9.9 2 1.9l.5-.1c-.1-.7-.1-1.8 0-2.5-1.1 0-2.9.1-4.3.1s-3.1-.1-4.1-.1v.5h.2c.6 0 1.2.1 1.2.9V20c0 .9-.6.9-1.2.9h-.2v.5zM111.2 9.8c-.5 0-1 .1-1.5.1-.6 0-1.3-.1-1.9-.1v.5h.2c.7 0 1.5.6 1.5 1.5v7c0 1.3-.3 2.1-1.5 2.1h-.2v.5c.8 0 1.5-.1 2.3-.1.7 0 1.4.1 2.1.1v-.5h-.2c-1.3 0-1.6-.5-1.6-1.9v-6.9l8.6 9.6h.6c-.1-.5-.1-1.1-.1-1.7v-7.6c0-2 .8-2.1 1.5-2.1h.2v-.5c-.7 0-1.4.1-2 .1-.8 0-1.5-.1-2.3-.1v.5h.4c.5 0 1.4.2 1.4 1.6v6.2l-7.5-8.3zM133.9 10.6v8.9c0 1.3-.5 1.4-1.4 1.4h-.3v.5c.7 0 1.8-.1 2.8-.1.9 0 2.1.1 2.7.1v-.5h-.3c-.8 0-1.4-.1-1.4-1.4v-8.9h2.7c1.1 0 1.2 1 1.2 1.6l.5-.2v-1.3c0-.4.1-.9.2-1.3l-.4-.1c0 .5-.4.5-.9.5h-8.6c-.4 0-.9 0-1-.5h-.4c0 .5 0 .9-.1 1.4 0 .5-.1.9-.2 1.4h.5c.3-1.2.3-1.5 1.5-1.5h2.9z"/><path fill-rule="evenodd" clip-rule="evenodd" d="M150.5 17.3h3.8l.6 1.9c.2.5.3 1 .3 1.2 0 .4-.6.5-1 .5h-.2v.5c.8 0 1.7-.1 2.5-.1s1.5 0 2.3.1v-.5h-.1c-.5 0-.9-.2-1.1-.7-.2-.5-.4-1.1-.6-1.7l-3-8.7c0-.1-.1-.3-.2-.4 0-.1-.1-.1-.1-.1h-.1c-.3.2-1 .5-1.5.7-.1.6-.4 1.4-.6 2.1l-2.7 7.6c-.3.7-.8 1.1-1.5 1.1h-.1v.5c.6 0 1.2-.1 1.8-.1.7 0 1.3 0 2 .1v-.5h-.2c-.5 0-1.2-.1-1.2-.6 0-.3.2-.7.4-1.3l.5-1.6zm3.4-.9h-3.1l1.5-4.7 1.6 4.7zM169.8 10.4c.2 0 .4-.1.9-.1 1.5 0 2.4.9 2.4 2.4 0 2-.9 2.6-2.6 2.6h-.8v-4.9h.1zm-2.2 9.6c0 .6-.6.9-1.2.9h-.3v.5c.8 0 1.6-.1 2.4-.1 1 0 1.9.1 2.9.1v-.5h-.3c-.8 0-1.4 0-1.4-1.3V16h1.1c1.1 1.9 2.2 3.7 3.5 5.4.5 0 1.1-.1 1.6-.1.6 0 1.1.1 1.6.1v-.5c-.8-.1-1.2-.3-1.6-1l-2.8-4.3c1.3-.5 2.3-1.4 2.3-2.9 0-2.4-1.9-2.9-4-2.9-.9 0-1.7.1-2.7.1-1 0-2-.1-2.6-.1v.5h.3c.5 0 1.2 0 1.2 1.3V20zM187.5 17.3h3.8l.6 1.9c.2.5.3 1 .3 1.2 0 .4-.7.5-1 .5h-.2v.5c.8 0 1.7-.1 2.5-.1s1.5 0 2.3.1v-.5h-.1c-.5 0-.9-.2-1.1-.7-.2-.5-.4-1.1-.6-1.7l-3-8.7c0-.1-.1-.3-.1-.4 0-.1-.1-.1-.1-.1h-.1c-.3.2-1 .5-1.5.7-.1.6-.4 1.4-.6 2.1l-2.7 7.6c-.3.7-.8 1.1-1.5 1.1h-.1v.5c.6 0 1.2-.1 1.8-.1.7 0 1.3 0 2 .1v-.5h-.2c-.5 0-1.2-.1-1.2-.6 0-.3.2-.7.4-1.3l.4-1.6zm3.4-.9h-3.1l1.5-4.7 1.6 4.7z"/><path fill="#FDBE57" d="M42.7 13.5c-1.6-1.2-4.2-2.2-7.2-2.7-2.2-.4-3.8-1.1-4.2-1.8-.5-.9 1.3-1.6 4.1-1.9 5.6-.4 11.8.3 16.8 1.7 4 1 7.2 2.5 8.8 4.6C66.9 21 55.9 30 35.8 32 21.6 33.4 7.2 30 0 23.3c16.7 6 30.7 3.3 36.6 1.3 5.3-1.8 9.9-5.6 7.7-9.5-.4-.5-.9-1.1-1.6-1.6z"/><path fill="#FDBE57" d="M21.9 13.7c1.1.9 3 1.6 5.3 2 1.6.3 2.8.8 3.1 1.3.4.7-1 1.2-3 1.4-4 .4-8.6-.2-12.2-1.2-2.9-.7-5.3-1.8-6.5-3.4C4.2 8.3 12.2 1.7 26.9.2 37.3-.8 47.8 1.6 53 6.5c-12.2-4.3-22.4-2.4-26.7-1-3.8 1.3-7.2 4.1-5.6 6.9.3.6.7 1 1.2 1.3z"/><path d="M196.8 9.5c1 0 1.9.8 1.9 1.9 0 1.1-.8 1.9-1.9 1.9-1 0-1.9-.8-1.9-1.9 0-1.1.8-1.9 1.9-1.9zm-.1.3c-.8 0-1.5.7-1.5 1.6 0 .9.7 1.6 1.5 1.6.9 0 1.5-.7 1.5-1.6.1-.9-.6-1.6-1.5-1.6zm-.3 2.7h-.3v-2.1c.2 0 .3-.1.6-.1s.5.1.7.2c.1.1.2.2.2.4 0 .3-.2.4-.4.5.2 0 .3.2.4.5.1.3.1.5.1.5h-.4c-.1-.1-.1-.3-.1-.5 0-.3-.2-.4-.5-.4h-.2v1zm0-1.2h.2c.3 0 .5-.1.5-.4 0-.2-.1-.4-.5-.4h-.2v.8z"/></svg>