<?xml version="1.0" encoding="utf-8"?>
<!-- Generator: Adobe Illustrator 21.0.2, SVG Export Plug-In . SVG Version: 6.00 Build 0)  -->
<svg version="1.0" id="Layer_1" xmlns="http://www.w3.org/2000/svg" xmlns:xlink="http://www.w3.org/1999/xlink" x="0px" y="0px"
	 width="600px" height="216px" viewBox="0 0 175 62.9" style="enable-background:new 0 0 600 216;" xml:space="preserve">
<style type="text/css">
	.st0{fill:#F47D20;}
	.st1{fill:#003467;}
</style>
<path class="st0" d="M40.7,34.2c3.4,0,5.5-4.7,5.5-7.3c0-1.6-0.9-2.8-2.5-2.8c-3.1,0-5.4,4-5.4,7C38.2,32.9,39.4,34.2,40.7,34.2
	 M40.3,33c-0.6,0-1.1-0.4-1.1-1.2c0-1.1,0.6-2.5,1.4-3.8c1.2-1.9,2.4-2.8,3.4-2.8c0.8,0,1.2,0.6,1.2,1.3C45.2,28.1,42.7,33,40.3,33"
	/>
<path class="st0" d="M34.3,24.9c3,0,5.1-0.8,6.4-2.1c1.9-1.6,2.7-3.8,2.9-6.6c0.1-1.3,0.2-7.3,0.2-7.8c0-0.5,0-5.3,0.1-5.7
	c0.1-0.4,0.2-1.4,1.5-1.4h1.4c0.2,0,0.2-0.1,0.2-0.3V0.2c0-0.1,0-0.2-0.3-0.2c-0.3,0-1.4,0.1-3.8,0.1c-2.3,0-3.9-0.1-4.2-0.1
	c-0.2,0-0.2,0.1-0.2,0.2v0.8c0,0.2,0,0.3,0.2,0.3h1.5c0.9,0,1.4,0.6,1.5,1.5c0.1,0.9,0.2,2.8,0.2,5.4v7.3c0,2.5-0.4,4.6-1.8,6
	c-1.2,1.2-3.2,1.9-5.1,1.9c-2,0-4.2-0.6-5.4-2.5c-0.8-1.2-1.1-2.8-1.1-4.4c0-1.1-0.2-5.4-0.2-7.3V7.2c0-1.7,0-4.1,0.1-4.5
	c0.1-0.8,0.7-1.4,1.6-1.4h1.7c0.2,0,0.3-0.1,0.3-0.2V0.2c0-0.1,0-0.2-0.3-0.2c-0.4,0-2,0.1-4.7,0.1S22.5,0,22.2,0
	c-0.3,0-0.3,0.1-0.3,0.3V1c0,0.2,0,0.3,0.2,0.3h1.6c1.1,0,1.3,0.5,1.3,1.7v8.2c0,4.5,0.1,6.8,0.5,8.3c0.5,2.2,1.7,3.7,4.1,4.6
	C30.8,24.6,32.5,24.9,34.3,24.9"/>
<path class="st0" d="M61.7,13.1c0-1.5-0.1-3.9,0.1-5.6C61.8,7,62,6.7,63,6.7h0.4c0.1,0,0.2-0.1,0.2-0.3V5.7c0-0.2-0.1-0.3-0.3-0.3
	c-0.3,0-1.6,0.1-2.3,0.1c-1.2,0-2.8-0.1-3.1-0.1c-0.2,0-0.3,0.1-0.3,0.2v0.9c0,0.2,0.1,0.3,0.3,0.3h0.6c0.6,0,1.2,0.2,1.4,0.7
	c0.2,0.4,0.3,2.6,0.3,3.5c0.1,1.2,0.1,2.3,0.1,4.5v2.5h-0.1c-0.4-0.5-3.9-4.8-4.6-5.6c-0.8-0.9-5.1-6.3-5.2-6.5
	c-0.1-0.2-0.4-0.3-0.9-0.3c-0.4,0-1.2,0.1-1.8,0.1c-0.4,0-1,0-1.5-0.1c-0.5,0-0.9,0-1,0c-0.1,0-0.2,0.1-0.2,0.2v0.9
	c0,0.1,0.1,0.2,0.2,0.2h0.3c1,0,2,0.6,2,2v3.9c0,4.2-0.1,6.9-0.1,7.3c-0.1,0.9-0.7,1.1-1.1,1.1h-0.9c-0.1,0-0.1,0-0.1,0.1v1
	c0,0.2,0,0.3,0.1,0.3c0.3,0,2-0.1,2.5-0.1c1.1,0,2.6,0.1,2.8,0.1c0.2,0,0.2-0.1,0.2-0.2v-0.9c0-0.1,0-0.2-0.2-0.2H50
	c-0.4,0-0.8-0.4-0.9-1.3c-0.1-0.3-0.2-4.1-0.2-6.3V8.3H49c0.6,0.7,3.6,4.7,4.5,5.7c0.4,0.5,2,2.4,3.7,4.4c1.5,1.8,2.8,3.4,3.1,3.6
	c0.1,0.1,0.5,0.4,0.9,0.4c0.4,0,0.6-0.4,0.6-0.7V13.1z"/>
<path class="st0" d="M69.8,12.7c0-0.3,0-4.7,0-5.1c0-0.8,0.4-0.9,1.4-0.9h0.6C72,6.7,72,6.6,72,6.4V5.5c0-0.1-0.1-0.2-0.2-0.2
	c-0.3,0-2.2,0.1-3.3,0.1c-1.8,0-4.1-0.1-4.3-0.1c-0.1,0-0.2,0.1-0.2,0.2v0.9c0,0.1,0,0.3,0.2,0.3h0.7c1.6,0,1.9,0.4,1.9,0.8
	c0,0.5,0.1,4.2,0.1,4.8V14c0,1.3,0,6-0.1,6.3C66.8,21,66.2,21,65.2,21h-0.8c-0.1,0-0.2,0.1-0.2,0.2V22c0,0.2,0.1,0.3,0.2,0.3
	c0.2,0,2.4-0.1,3.6-0.1c1.7,0,3.6,0.1,3.9,0.1c0.2,0,0.2-0.1,0.2-0.3v-0.9c0-0.1,0-0.2-0.2-0.2h-0.6c-1.1,0-1.5-0.5-1.6-1.4
	c0-0.6,0-4.8,0-5.1V12.7z"/>
<path class="st0" d="M107,13.7c0,2.3,0,4.5,0,6.3c0,0.8-0.4,1-1.3,1h-0.4c-0.1,0-0.2,0.1-0.2,0.2V22c0,0.2,0.1,0.3,0.2,0.3
	c0.3,0,2.2-0.1,3.1-0.1c1.2,0,3.2,0.1,3.5,0.1c0.2,0,0.3-0.1,0.3-0.3v-0.9c0-0.1-0.1-0.2-0.2-0.2h-1c-0.7,0-1-0.4-1-0.9v-4v-0.9
	c0.3-0.1,0.6-0.1,1-0.1c1.6,0,2.1,0.8,3.5,3.1c0.3,0.6,2,3.6,2.7,4.1c0.6,0,1.5-0.1,2.4-0.1c0.4,0,0.8,0,1.2,0
	c0.4,0,0.7,0.1,0.7,0.1c0.2,0,0.2-0.1,0.2-0.3v-0.7c0-0.2,0-0.3-0.2-0.3c-0.7,0-1.2,0-1.7-0.4c-0.7-0.5-1.6-1.6-2.1-2.4
	c-1.5-2.2-2.3-3.3-3.1-3.5v-0.1c2.9-1,4.4-2.5,4.4-5.1c0-0.9-0.5-1.9-1.3-2.7c-0.9-0.8-2.6-1.5-4.8-1.5c-0.5,0-3.7,0.1-4.2,0.1
	c-0.7,0-3-0.1-3.2-0.1c-0.1,0-0.2,0.1-0.2,0.2v0.9c0,0.1,0,0.3,0.1,0.3h0.4c1,0,1.4,0.4,1.4,1.2v3.6V13.7z M109.8,7.4
	c0-0.7,0.6-0.8,1.1-0.8c1.5,0,2.5,0.3,3.5,1c0.7,0.4,1.2,1.5,1.2,2.6c0,1-0.6,3.9-4.8,3.9c-0.5,0-0.9,0-1.1-0.1V7.4z"/>
<path class="st0" d="M127.3,22.7c3.4,0,5.2-2.4,5.2-5.2c0-1.9-0.4-2.8-1.2-3.6c-0.9-1-2.3-1.4-4-2c-0.7-0.3-2-0.8-2.6-1.5
	c-0.4-0.5-0.6-1.3-0.6-1.8c0-0.7,0.6-2.3,2.6-2.3c1.1,0,1.9,0.4,2.5,1c0.8,0.9,1.1,2.2,1.3,2.6c0,0.1,0.1,0.2,0.2,0.1l0.7-0.1
	c0.1,0,0.1-0.1,0.1-0.2c0-0.5-0.4-2.9-0.4-4.2c0-0.2,0-0.3-0.3-0.3c-0.3,0-0.4,0-0.5,0.1l-0.1,0.3c-0.1,0.2-0.3,0.1-0.6-0.1
	c-0.4-0.2-1.2-0.5-2.6-0.5c-1.3,0-2.5,0.3-3.5,1.1c-0.8,0.7-1.6,1.9-1.6,3.1c0,1.8,0.4,3,1.3,3.8c1.1,1,2.9,1.7,3.6,1.9
	c2,0.7,3.4,1.7,3.4,3.8c0,1.6-1.8,2.5-3,2.5c-1.4,0-2.6-0.7-3.2-1.9c-0.7-1.2-0.7-2-0.7-2.5c0-0.1-0.1-0.2-0.3-0.3l-0.7-0.1
	c-0.1,0-0.2,0.1-0.3,0.3c0,0.6-0.3,3.6-0.4,4.6c0,0.2,0.1,0.3,0.3,0.4c0.3,0.1,0.5,0,0.6-0.2l0.1-0.3c0.1-0.3,0.3-0.3,0.6-0.1
	C124.1,22,125.4,22.7,127.3,22.7"/>
<path class="st0" d="M138.8,12.7c0-0.3,0-4.7,0-5.1c0-0.8,0.4-0.9,1.4-0.9h0.6c0.2,0,0.2-0.1,0.2-0.3V5.5c0-0.1-0.1-0.2-0.2-0.2
	c-0.3,0-2.2,0.1-3.3,0.1c-1.8,0-4.1-0.1-4.3-0.1c-0.1,0-0.2,0.1-0.2,0.2v0.9c0,0.1,0,0.3,0.2,0.3h0.7c1.6,0,1.9,0.4,1.9,0.8
	c0,0.5,0.1,4.2,0.1,4.8V14c0,1.3,0,6-0.1,6.3c-0.1,0.7-0.7,0.7-1.6,0.7h-0.8c-0.1,0-0.2,0.1-0.2,0.2V22c0,0.2,0.1,0.3,0.2,0.3
	c0.2,0,2.4-0.1,3.6-0.1c1.7,0,3.6,0.1,3.9,0.1c0.2,0,0.2-0.1,0.2-0.3v-0.9c0-0.1,0-0.2-0.2-0.2h-0.6c-1.1,0-1.5-0.5-1.6-1.4
	c0-0.6,0-4.8,0-5.1V12.7z"/>
<path class="st0" d="M78.7,34.8c0-0.3,0-4.7,0-5.1c0-0.8,0.4-0.9,1.4-0.9h0.6c0.2,0,0.2-0.1,0.2-0.3v-0.9c0-0.1-0.1-0.2-0.2-0.2
	c-0.3,0-2.2,0.1-3.3,0.1c-1.8,0-4.1-0.1-4.3-0.1c-0.1,0-0.2,0.1-0.2,0.2v0.9c0,0.1,0,0.3,0.2,0.3h0.7c1.6,0,1.9,0.4,1.9,0.8
	c0,0.5,0.1,4.2,0.1,4.8V36c0,1.3,0,6-0.1,6.3c-0.1,0.7-0.7,0.7-1.6,0.7h-0.8c-0.1,0-0.2,0.1-0.2,0.2v0.8c0,0.2,0.1,0.3,0.2,0.3
	c0.2,0,2.4-0.1,3.6-0.1c1.7,0,3.6,0.1,3.9,0.1c0.2,0,0.2-0.1,0.2-0.3v-0.9c0-0.1,0-0.2-0.2-0.2h-0.6c-1.1,0-1.5-0.5-1.6-1.4
	c0-0.6,0-4.8,0-5.1V34.8z"/>
<path class="st0" d="M84.4,35.8c0,2.3,0,4.5,0,6.3c0,0.8-0.4,1-1.3,1h-0.4c-0.1,0-0.2,0.1-0.2,0.2v0.9c0,0.2,0.1,0.3,0.2,0.3
	c0.3,0,2.2-0.1,3.1-0.1c1.2,0,3.2,0.1,3.5,0.1c0.2,0,0.3-0.1,0.3-0.3v-0.9c0-0.1-0.1-0.2-0.2-0.2h-1c-0.7,0-1-0.4-1-0.9v-4v-0.9
	c0.3-0.1,0.6-0.1,1-0.1c1.6,0,2.1,0.8,3.5,3.1c0.3,0.6,2,3.6,2.7,4.1c0.6,0,1.5-0.1,2.4-0.1c0.4,0,0.8,0,1.2,0
	c0.4,0,0.7,0.1,0.7,0.1c0.1,0,0.2-0.1,0.2-0.3v-0.7c0-0.2,0-0.3-0.2-0.3c-0.7,0-1.2,0-1.7-0.4c-0.7-0.5-1.6-1.6-2.1-2.4
	c-1.5-2.2-2.3-3.3-3.1-3.5v-0.1c2.9-1,4.4-2.5,4.4-5.1c0-0.9-0.5-1.9-1.3-2.7c-0.9-0.8-2.6-1.5-4.8-1.5c-0.5,0-3.7,0.1-4.2,0.1
	c-0.7,0-3-0.1-3.2-0.1c-0.1,0-0.2,0.1-0.2,0.2v0.9c0,0.1,0,0.3,0.1,0.3H83c1,0,1.4,0.4,1.4,1.2v3.6V35.8z M87.4,29.4
	c0-0.7,0.6-0.8,1.1-0.8c1.5,0,2.5,0.3,3.5,1c0.7,0.4,1.2,1.5,1.2,2.6c0,1-0.6,3.9-4.8,3.9c-0.5,0-0.9,0-1.1-0.1V29.4z"/>
<path class="st0" d="M112.3,39.2c0-0.6,0.7-0.8,1.1-0.8h0.6c0.1,0,0.2-0.1,0.2-0.2v-0.9c0-0.1-0.1-0.2-0.2-0.2
	c-0.1,0-1.8,0.1-3.2,0.1c-2,0-3.8-0.1-4.1-0.1c-0.1,0-0.2,0.1-0.2,0.2v0.9c0,0.1,0,0.2,0.2,0.2h0.9c1,0,1.8,0.3,1.8,1.1v1.4
	c0,0.7-0.1,1.2-0.6,1.6c-0.6,0.5-1.8,0.8-3.1,0.8c-1,0-2.5-0.6-3.6-1.7c-1.5-1.5-2.3-3.6-2.3-6.5c0-1.7,0.8-3.6,1.9-4.9
	c1.4-1.5,2.8-1.9,4-1.9c1.7,0,2.8,0.7,3.8,1.8c0.9,0.9,1.5,2,1.8,2.6c0.1,0.3,0.2,0.3,0.3,0.3l0.7-0.2c0.1,0,0.1-0.1,0.1-0.3
	c-0.1-0.7-0.6-4.1-0.6-4.3c0-0.3-0.1-0.4-0.4-0.4c-0.3,0-0.4,0.1-0.5,0.3l-0.2,0.3c-0.1,0.1-0.2,0.1-0.5-0.1
	c-0.7-0.5-2.5-1.2-4.2-1.2c-2.6,0-4.9,0.8-6.7,2.3c-1.8,1.6-2.8,3.8-2.8,6.1c0,2.9,0.7,4.9,2.2,6.6c1.8,1.9,4.7,2.7,6.7,2.7
	c2.4,0,4.4-0.5,6.4-1.5c0.3-0.1,0.4-0.2,0.4-0.4c0-0.2-0.1-0.4-0.1-0.7V39.2z"/>
<path class="st0" d="M119.6,34.8c0-0.3,0-4.7,0-5.1c0-0.8,0.4-0.9,1.4-0.9h0.6c0.2,0,0.2-0.1,0.2-0.3v-0.9c0-0.1-0.1-0.2-0.2-0.2
	c-0.3,0-2.2,0.1-3.3,0.1c-1.8,0-4.1-0.1-4.3-0.1c-0.1,0-0.2,0.1-0.2,0.2v0.9c0,0.1,0,0.3,0.2,0.3h0.7c1.6,0,1.9,0.4,1.9,0.8
	c0,0.5,0.1,4.2,0.1,4.8V36c0,1.3,0,6-0.1,6.3c-0.1,0.7-0.7,0.7-1.6,0.7h-0.8c-0.1,0-0.2,0.1-0.2,0.2v0.8c0,0.2,0.1,0.3,0.2,0.3
	c0.2,0,2.4-0.1,3.6-0.1c1.7,0,3.6,0.1,3.9,0.1c0.2,0,0.2-0.1,0.2-0.3v-0.9c0-0.1,0-0.2-0.2-0.2h-0.6c-1.1,0-1.5-0.5-1.6-1.4
	c0-0.6,0-4.8,0-5.1V34.8z"/>
<path class="st0" d="M139.6,35.1c0-1.5-0.1-3.9,0.1-5.6c0.1-0.5,0.3-0.8,1.2-0.8h0.4c0.1,0,0.2-0.1,0.2-0.3v-0.8
	c0-0.2-0.1-0.3-0.3-0.3c-0.3,0-1.6,0.1-2.3,0.1c-1.2,0-2.8-0.1-3.1-0.1c-0.2,0-0.3,0.1-0.3,0.2v0.9c0,0.2,0.1,0.3,0.3,0.3h0.6
	c0.6,0,1.2,0.2,1.4,0.7c0.2,0.4,0.3,2.6,0.3,3.5c0.1,1.2,0.1,2.3,0.1,4.5v2.5h-0.1c-0.4-0.5-3.9-4.8-4.6-5.6
	c-0.8-0.9-5.1-6.3-5.2-6.5c-0.1-0.2-0.4-0.3-0.9-0.3c-0.4,0-1.2,0.1-1.8,0.1c-0.4,0-1,0-1.5-0.1c-0.5,0-0.9,0-1,0
	c-0.1,0-0.2,0.1-0.2,0.2v0.9c0,0.1,0.1,0.2,0.2,0.2h0.3c1,0,2,0.6,2,2v3.9c0,4.2-0.1,6.9-0.1,7.3c-0.1,0.9-0.7,1.1-1.1,1.1h-0.9
	c-0.1,0-0.1,0-0.1,0.1v1c0,0.2,0,0.3,0.1,0.3c0.3,0,2-0.1,2.5-0.1c1.1,0,2.6,0.1,2.8,0.1c0.2,0,0.2-0.1,0.2-0.2v-0.9
	c0-0.1,0-0.2-0.2-0.2H128c-0.4,0-0.8-0.4-0.9-1.3c-0.1-0.3-0.2-4.1-0.2-6.3v-5.1h0.1c0.6,0.7,3.6,4.7,4.5,5.7c0.4,0.5,2,2.4,3.7,4.4
	c1.5,1.8,2.8,3.4,3.1,3.6c0.1,0.1,0.5,0.4,0.9,0.4c0.4,0,0.6-0.4,0.6-0.7V35.1z"/>
<path class="st0" d="M48.7,25.4h-2.1c-0.1,0-0.2-0.1-0.1-0.3l0.1-0.4c0-0.2,0.2-0.5,0.4-0.5h2c0.7-2,1.4-3.7,2.6-5.1
	c0.7-0.8,2-1.6,3.5-1.6c1.4,0,2.1,0.8,2.1,1.4c0,0.7-0.5,1.1-0.9,1.1c-0.8,0-1-0.4-1-0.9c0-0.2-0.3-0.7-1-0.7
	c-2.2,0-2.7,3.1-3.4,5.8c0,0,3.3,0.1,5.9,0.1c2.9,0,4.4-0.1,4.7-0.1c0.3,0,0.3,0.1,0.3,0.2v0.8c0,0.2,0,0.3-0.3,0.3H60
	c-1,0-1.4,0.3-1.4,0.9c0,0.3,0,0.7,0.1,1.2c0.2,1.2,1.5,5.3,2.1,7.2c0.4,1.3,2.4,7.2,3.2,9.3c0.8-1.6,3.5-8.7,3.7-9.5
	c0.3-0.9,1.6-4.9,2.2-6.4c0.3-0.9,0.5-1.5,0.5-2c0-0.4-0.2-0.8-1.1-0.8h-0.9c-0.1,0-0.2-0.1-0.2-0.3v-0.8c0-0.2,0-0.2,0.2-0.2
	c0.3,0,1.9,0.1,4,0.1c2.5,0,3.4-0.1,3.7-0.1c0.2,0,0.2,0.1,0.2,0.2v0.9c0,0.1,0,0.2-0.2,0.2h-0.9c-1.1,0-1.8,0.5-2.4,1.3
	c-0.9,1.1-3.6,8.1-4.2,9.6c-0.4,1.1-4.8,12-5,12.4c-0.1,0.3-0.3,0.4-0.5,0.4c-0.3,0-0.4-0.3-0.6-0.8c-1.1-3.2-3.9-11-4.3-12.2
	L57.8,35c-0.8-2.4-2.4-7.4-2.9-8.4c-0.3-0.8-0.7-1.1-1.4-1.1l-3.2,0c-0.6,1.9-1.7,5.9-2.9,9c-1.4,3.7-3.1,6.3-5.6,6.3
	c-0.9,0-1.7-0.6-1.7-1.4c0-0.5,0.4-1,1-1c0.7,0,1,0.7,1.1,1.1c0,0.2,0.2,0.4,0.4,0.4c1.1,0,2.4-2,3.7-6.3L48.7,25.4z"/>
<path class="st0" d="M141.9,5.3c0,0,0.1,0,0.1,0c0.6,0.1,2.7,0.3,6.8,0.3h1.5c1.2,0,2.5,0,3.9-0.1c0.7,0,5.1,0,6,0
	c0.8,0,3.4-0.1,3.6-0.1c0.1,0,0.3,0.1,0.3,0.3v0.8c0,0.1,0,0.3-0.3,0.3h-0.6c-0.7,0-0.7,0.4-0.6,0.6c0.2,0.3,3.3,5.3,3.9,6.2
	c0.6-0.9,3.6-5.4,3.8-5.7c0.3-0.6,0.3-1.1-0.5-1.1h-0.6c-0.2,0-0.3-0.1-0.3-0.3V5.6c0-0.1,0.1-0.3,0.3-0.3c0.2,0,2.1,0.1,3.2,0.1
	c0.7,0,2-0.1,2.2-0.1c0.2,0,0.3,0.1,0.3,0.3v0.8c0,0.2-0.1,0.3-0.2,0.3h-0.4c-0.6,0-1,0.1-1.3,0.3c-0.6,0.3-4.9,6.4-5.7,7.7v3.1
	c0,0.9,0,1.9,0.1,2.4c0.1,0.8,0.7,0.8,1.3,0.8h0.5c0.2,0,0.3,0.1,0.3,0.2v0.9c0,0.1-0.1,0.3-0.3,0.3c-0.2,0-2.3-0.1-3.5-0.1
	c-0.8,0-3,0.1-3.2,0.1c-0.2,0-0.3-0.1-0.3-0.3v-0.8c0-0.1,0.1-0.2,0.2-0.2h0.6c1.2,0,1.4-0.2,1.5-0.7c0-0.3,0-1.7,0-3.9V15
	c-0.3-0.7-4.9-7.3-5.5-7.9c-0.3-0.3-0.8-0.4-1.2-0.4c0.2,1,0.5,2.3,0.6,3c0,0.1,0,0.2-0.2,0.3l-0.6,0.2c-0.2,0.1-0.3,0-0.4-0.1
	c-0.4-0.9-1.1-2.2-1.9-2.9c-0.9-0.3-3.7-0.4-4.3-0.4V13c0,3.9,0,6.7,0,7c0.1,0.6,0.3,1,0.9,1h1.4c0.2,0,0.3,0.1,0.3,0.3v0.8
	c0,0.1-0.1,0.2-0.3,0.2c-0.3,0-2.6-0.1-3.8-0.1c-1,0-3.5,0.1-3.8,0.1c-0.2,0-0.3-0.1-0.3-0.3v-0.7c0-0.2,0.1-0.3,0.2-0.3h1.5
	c0.6,0,0.8-0.3,0.9-0.6c0.1-1.4,0.1-3.4,0.1-5.6v-8c-0.7,0-2.8,0-4.2,0.3c-0.9,0.7-1.7,1.9-2.2,2.9c-0.1,0.1-0.2,0.3-0.3,0.2
	l-0.7-0.3c-0.2-0.1-0.2-0.2-0.1-0.4c0.2-0.7,0.9-3,1.2-4.1C141.9,5.3,141.9,5.3,141.9,5.3"/>
<path class="st0" d="M155.6,36.7h5.1c-0.1-0.5-1.9-6.1-2-6.4c-0.1-0.2-0.1-0.4-0.2-0.4s-0.2,0.1-0.3,0.4
	C158.1,30.6,155.8,36.3,155.6,36.7 M147.9,34.8v1.9c0,0.2,0,4.5,0,5.1c0.1,0.9,0.5,1.4,1.6,1.4h0.4c0.6,0,1.2-0.4,1.5-0.8
	c0.3-0.3,2.2-4.8,3.1-6.6c0.3-0.5,2.5-5.6,2.7-6.2c0.1-0.2,0.3-0.6,0-0.7c-0.1-0.1-0.2-0.3-0.1-0.4c0-0.1,0-0.2,0.4-0.3
	c0.7-0.1,1.8-0.8,2.1-1.1c0.1-0.2,0.2-0.3,0.4-0.3c0.2,0,0.3,0.2,0.4,0.4c0.5,1.5,2.4,6.8,2.9,8.3c0.6,1.9,2.2,6.3,2.4,6.6
	c0.5,0.7,1.1,1,1.7,1h0.7c0.1,0,0.2,0.1,0.2,0.2v0.8c0,0.1,0,0.3-0.3,0.3c-0.4,0-2.4-0.1-3.3-0.1c-0.7,0-2.9,0.1-3.4,0.1
	c-0.3,0-0.3-0.2-0.3-0.3v-0.8c0-0.1,0-0.2,0.2-0.2h0.6c0.4,0,0.6-0.3,0.6-0.6c-0.1-0.7-1.2-3.7-1.5-4.6h-6c-0.1,0.4-1.3,3.5-1.5,4
	c-0.2,0.7-0.1,1.2,0.7,1.2h0.9c0.2,0,0.3,0.1,0.3,0.3v0.8c0,0.1,0,0.3-0.2,0.3c-0.3,0-2.3-0.1-2.9-0.1h-6.2c-1.3,0-3.4,0.1-3.6,0.1
	c-0.1,0-0.2-0.1-0.2-0.3v-0.8c0-0.1,0.1-0.2,0.2-0.2h0.8c0.9,0,1.5,0,1.6-0.7c0-0.3,0.1-5.1,0.1-6.3v-1.6c0-0.6-0.1-4.3-0.1-4.8
	c0-0.4-0.3-0.8-1.9-0.8h-0.7c-0.2,0-0.2-0.1-0.2-0.3v-0.9c0-0.1,0.1-0.2,0.2-0.2c0.2,0,2.5,0.1,4.3,0.1c1.1,0,3-0.1,3.3-0.1
	c0.1,0,0.2,0.1,0.2,0.2v0.9c0,0.1,0,0.3-0.2,0.3h-0.6c-1,0-1.3,0.1-1.4,0.9C148,30.1,147.9,34.5,147.9,34.8"/>
<path class="st0" d="M79.8,5.6v0.9c0,0.1-0.1,0.2-0.3,0.2h-0.9c-0.5,0-1,0.1-1,0.6c0,0.9,0.6,2.3,1.6,5.4c0.3,0.9,1.7,5.3,1.9,5.8
	h0.1c0.2-0.8,2-5.4,2.2-6c1.4-4.1,1.9-5.1,1.9-5.5c0-0.2-0.1-0.4-0.8-0.4h-0.4c-0.1,0-0.2-0.1-0.2-0.3V5.6c0-0.1,0.1-0.2,0.2-0.2
	c0.2,0,2.2,0.1,3,0.1h5.7l8.3,0c0.4,0,0.9-0.1,1-0.1c0.1,0,0.1,0.1,0.2,0.5c0.1,0.3,1.1,3.5,1.2,3.8c0,0.1,0,0.2,0,0.3l-0.6,0.3
	c-0.1,0-0.2,0-0.3-0.1c-0.1-0.1-1.9-2.2-2.5-2.8c-0.4-0.4-1-0.6-1.4-0.6l-3.9-0.1V13c0.2,0,2.4-0.1,2.7-0.2c1-0.3,1.3-0.8,1.3-1.9
	c0-0.1,0-0.2,0.2-0.2l0.8,0c0.1,0,0.3,0.1,0.2,0.2c-0.1,0.3-0.1,2.3-0.1,2.6c0,0.8,0.1,2,0.1,2.5c0,0.1-0.1,0.2-0.2,0.2l-0.8,0.1
	c-0.1,0-0.2,0-0.2-0.1c-0.2-0.9-0.4-1.5-1.4-1.8c-1.1-0.3-2.4-0.3-2.8-0.3v1.3c0,1.3,0.1,3.5,0.1,3.9c0,1.8,1.1,1.9,2.7,1.9
	c1.6,0,2.7,0,3.9-1c0.3-0.2,1.6-1.9,2-2.5c0.2-0.3,0.4-0.3,0.5-0.2l0.6,0.3c0.1,0,0.1,0.1,0.1,0.3l-1.3,3.9
	c-0.1,0.2-0.3,0.4-0.4,0.4c-0.3,0-2.2-0.1-10.1-0.1c-0.7,0-2.7,0.1-3.2,0.1c-0.2,0-0.2-0.1-0.2-0.3v-0.9c0-0.1,0.1-0.2,0.3-0.2h0.3
	c1.8,0,1.9-0.1,1.9-0.7v-5.6v-2.3c0-2,0-4.4-0.1-4.8c-0.1-0.8-0.3-0.9-1.8-0.9h-0.3h-0.1h-0.5c-0.7,0-1.2,0.2-1.6,0.6
	c-0.7,0.7-2.7,5.6-3.1,6.6c-0.3,0.8-3.4,8.1-3.7,8.6c-0.1,0.2-0.3,0.3-0.6,0.3s-0.5-0.3-0.6-0.6c-0.8-2.2-2.8-7.6-3.1-8.4l-0.3-0.8
	c-0.6-1.7-1.8-5.1-2-5.5C74,7,73.7,6.7,73.3,6.7h-0.4c-0.1,0-0.2-0.1-0.2-0.2V5.5c0-0.1,0.1-0.2,0.2-0.2c0.2,0,2.2,0.1,3.2,0.1
	c0.9,0,3.2-0.1,3.4-0.1C79.7,5.4,79.8,5.4,79.8,5.6"/>
<path class="st1" d="M41.3,55.9c0,0.5,0,4.3-0.1,5.2c0,0.5-0.1,0.9-0.5,0.9h-1.1c-0.1,0-0.1,0-0.1,0.1v0.5c0,0.1,0,0.1,0.1,0.1
	c0.4,0,1-0.1,2.7-0.1c1.4,0,2.1,0.1,2.4,0.1c0.1,0,0.2,0,0.2-0.1v-0.5c0-0.1,0-0.1-0.2-0.1h-0.9c-0.4,0-0.6-0.2-0.6-0.7
	c0-1.4,0-4.3,0-4.8V56c0-0.1,0.1-0.2,0.3-0.2h7.1c0.3,0,0.4,0,0.4,0.2v0.3c0,0.7,0,3.8-0.1,4.7c0,0.5-0.1,0.9-0.5,0.9h-1.2
	c-0.1,0-0.2,0-0.2,0.1v0.5c0,0.1,0,0.1,0.1,0.1c0.6,0,1.2-0.1,2.9-0.1c1.4,0,2.1,0.1,2.4,0.1c0.1,0,0.2,0,0.2-0.2v-0.5
	c0-0.1,0-0.1-0.2-0.1h-0.9c-0.6,0-0.8-0.3-0.8-1c0-1.1-0.1-4.8-0.1-5.4v-0.7c0-0.7,0-4,0-4.2c0-0.7,0.1-1,0.6-1h0.9
	c0.1,0,0.2,0,0.2-0.1v-0.5c0-0.1,0-0.2-0.2-0.2c-0.4,0-1.2,0.1-2.5,0.1c-1.3,0-2.1-0.1-2.5-0.1c-0.1,0-0.1,0-0.1,0.1v0.5
	c0,0.1,0,0.1,0.1,0.1h1c0.6,0,0.6,0.4,0.6,1c0,0.2,0.1,2.9,0.1,4v0.2c0,0.3-0.1,0.3-0.4,0.3h-7.1c-0.2,0-0.2-0.1-0.2-0.2v-0.3
	c0-1.1,0-3.6,0-3.9c0-0.8,0.1-1.1,0.8-1.1h1c0.1,0,0.2,0,0.2-0.2V49c0-0.1-0.1-0.1-0.2-0.1c-0.4,0-1.1,0.1-2.6,0.1
	c-1.7,0-2.3-0.1-2.7-0.1c-0.1,0-0.2,0-0.2,0.1v0.5c0,0.1,0,0.2,0.1,0.2h0.9c0.7,0,0.9,0.3,0.9,1.3c0,0.3,0,2.9,0,4.1V55.9z"/>
<path class="st1" d="M58.2,53.1l2.4,0c0.2,0,0.6,0.1,0.9,0.3c0.4,0.4,1.5,1.6,1.5,1.7c0.1,0.1,0.2,0.1,0.2,0.1l0.4-0.2
	c0,0,0-0.1,0-0.2c0-0.2-0.7-2.1-0.7-2.3c0-0.3-0.1-0.3-0.1-0.3c-0.1,0-0.4,0-0.6,0l-5.1,0c-0.3,0-1.6-0.1-1.9-0.1
	c-0.1,0-0.1,0.1-0.1,0.1V53c0,0.1,0,0.2,0.1,0.2h0.2c0.9,0,1,0.1,1.1,0.6c0,0.2,0,1.7,0,2.9V58v3.4c0,0.3-0.1,0.4-1.1,0.4h-0.2
	c-0.1,0-0.2,0-0.2,0.1v0.5c0,0.1,0,0.2,0.1,0.2c0.3,0,1.5-0.1,1.9-0.1c4.8,0,6,0.1,6.2,0.1c0.1,0,0.2-0.1,0.3-0.2l0.8-2.4
	c0-0.1,0-0.1-0.1-0.2l-0.4-0.2c-0.1,0-0.2,0-0.3,0.1c-0.2,0.4-1,1.4-1.2,1.5C61.5,62,60.9,62,59.9,62c-1,0-1.6-0.1-1.6-1.1
	c0-0.3,0-1.6,0-2.4v-0.8c0.2,0,1,0,1.7,0.2c0.6,0.1,0.7,0.5,0.8,1.1c0,0.1,0.1,0.1,0.1,0.1l0.5,0c0.1,0,0.1,0,0.1-0.1
	c0-0.3-0.1-1-0.1-1.5c0-0.2,0-1.4,0-1.6c0-0.1,0-0.1-0.1-0.1l-0.5,0c-0.1,0-0.1,0-0.1,0.1c0,0.7-0.2,1-0.8,1.2
	c-0.2,0-1.5,0.1-1.7,0.1V53.1z"/>
<path class="st1" d="M104.1,56.8c0-0.5,0-2.8,0-3.2c0-0.3,0.1-0.5,0.5-0.5h0.6c0.2,0,0.2-0.1,0.2-0.2v-0.4c0-0.2,0-0.2-0.2-0.2
	s-1.6,0.1-1.9,0.1c-0.5,0-1.9-0.1-2.2-0.1c-0.1,0-0.2,0-0.2,0.2V53c0,0.1,0,0.1,0.2,0.1h0.7c0.3,0,0.5,0.3,0.5,0.7c0,0.2,0,2,0,2.6
	v0.2c0,0.2-0.1,0.2-0.3,0.2h-5.2c-0.1,0-0.2-0.1-0.2-0.2v-0.2c0-0.7,0-2.6,0-2.8c0-0.3,0.2-0.6,0.6-0.6H98c0.2,0,0.2,0,0.2-0.2v-0.5
	c0-0.1,0-0.2-0.2-0.2c-0.3,0-1.6,0.1-2.1,0.1c-0.6,0-2.1-0.1-2.3-0.1c-0.2,0-0.2,0-0.2,0.2V53c0,0.1,0,0.2,0.2,0.2h0.6
	c0.4,0,0.7,0.2,0.7,0.9c0,0.2,0,2,0,2.9v0.6c0,0.4,0,3.2,0,3.5c0,0.5,0,0.8-0.6,0.8h-0.7c-0.1,0-0.2,0-0.2,0.1v0.5
	c0,0.1,0,0.2,0.2,0.2c0.3,0,1.8-0.1,2.2-0.1c0.5,0,1.8,0.1,2.1,0.1c0.1,0,0.1-0.1,0.1-0.2V62c0-0.1,0-0.2-0.1-0.2h-0.7
	c-0.3,0-0.5-0.1-0.5-0.8c0-0.4,0-2.7,0-3.1v-0.2c0-0.1,0-0.1,0.2-0.1h5.1c0.3,0,0.3,0,0.3,0.2V58c0,0.4,0,2.7,0,3.1
	c0,0.5-0.1,0.8-0.4,0.8H101c-0.1,0-0.2,0-0.2,0.1v0.5c0,0.1,0,0.2,0.2,0.2c0.4,0,1.7-0.1,2.2-0.1c0.7,0,1.9,0.1,2.1,0.1
	c0.1,0,0.2,0,0.2-0.2V62c0-0.1,0-0.2-0.1-0.2h-0.7c-0.5,0-0.6-0.2-0.6-1.1c0-0.2,0-2.9,0-3.4V56.8z"/>
<path class="st1" d="M83.2,52.2C83.2,52.2,83.3,52.2,83.2,52.2c0.4,0,1.8,0.2,4.3,0.2h0.9c0.2,0,0.3,0,0.5,0c1.9,0,2.9-0.1,3.2-0.2
	c0.1,0,0.1,0,0.1,0c0,0,0,0,0,0.1c0.2,0.7,0.6,2.1,0.7,2.5c0,0.1,0,0.2-0.1,0.2l-0.4,0.2c-0.1,0-0.2,0-0.2-0.1
	c-0.3-0.6-0.8-1.3-1.4-1.8c-0.6-0.2-1.4-0.2-2-0.2V57c0,2.4,0,4.1,0,4.3c0,0.4,0.2,0.6,0.5,0.6h0.9c0.1,0,0.2,0.1,0.2,0.2v0.5
	c0,0.1,0,0.1-0.2,0.1c-0.2,0-1.6-0.1-2.3-0.1c-0.6,0-2.1,0.1-2.3,0.1c-0.1,0-0.2-0.1-0.2-0.2V62c0-0.1,0-0.2,0.1-0.2h0.9
	c0.3,0,0.5-0.2,0.5-0.4c0.1-0.9,0.1-2.1,0.1-3.5v-4.9c-0.4,0-1.7,0-2.6,0.2c-0.6,0.4-1.1,1.2-1.4,1.8c0,0.1-0.1,0.2-0.2,0.1L82.6,55
	c-0.1,0-0.1-0.1-0.1-0.2C82.6,54.4,83,53,83.2,52.2C83.2,52.2,83.2,52.2,83.2,52.2"/>
<path class="st1" d="M113.7,62.9c2.5,0,3.9-1.9,3.9-4.2c0-1.3-0.3-2-0.8-2.6c-0.7-0.8-1.8-1.2-3.1-1.6c-0.6-0.2-1.6-0.6-2.2-1.2
	c-0.5-0.5-0.6-1.1-0.6-1.7c0-1,0.6-2.3,2.3-2.3c0.9,0,1.6,0.3,2.1,0.8c0.8,0.8,1,1.6,1.2,2.1c0,0.1,0.1,0.1,0.1,0.1l0.2-0.1
	c0.1,0,0.1-0.1,0.1-0.2c0-0.4-0.3-2.4-0.3-3.1c0-0.2-0.1-0.3-0.2-0.3c-0.1,0-0.2,0-0.3,0.1l-0.3,0.2c-0.1,0.1-0.2,0.1-0.4,0
	c-0.3-0.2-1.2-0.5-2.3-0.5c-1,0-2,0.3-2.7,0.9c-0.6,0.6-1.2,1.5-1.2,2.5c0,1.3,0.3,2.2,1,2.8c0.8,0.9,2.2,1.4,2.8,1.6
	c1.5,0.5,3,1.3,3,3.3c0,1.7-1.5,2.5-2.6,2.5c-1.1,0-2.1-0.5-2.7-1.4c-0.6-1-0.7-1.6-0.7-2.2c0-0.1,0-0.2-0.1-0.2l-0.3,0
	c-0.1,0-0.1,0-0.1,0.1c-0.1,0.6-0.3,3-0.3,3.5c0,0.2,0.1,0.3,0.2,0.3c0.1,0,0.2,0,0.3-0.2c0.1-0.2,0.2-0.3,0.3-0.3
	c0.1,0,0.2,0.1,0.4,0.2C111.4,62.5,112.3,62.9,113.7,62.9"/>
<path class="st1" d="M123.5,58c0.5-0.8,3.2-4.5,3.5-4.7c0.2-0.1,0.5-0.2,0.8-0.2h0.2c0.1,0,0.1,0,0.1-0.2v-0.5c0-0.1,0-0.2-0.2-0.2
	c-0.1,0-0.9,0.1-1.3,0.1c-0.7,0-1.8-0.1-2-0.1c-0.1,0-0.2,0.1-0.2,0.2V53c0,0.1,0,0.2,0.2,0.2h0.4c0.5,0,0.5,0.3,0.3,0.7
	c-0.1,0.2-2,2.9-2.3,3.5c-0.4-0.5-2.3-3.6-2.4-3.8c-0.1-0.1-0.1-0.4,0.3-0.4h0.3c0.1,0,0.2-0.1,0.2-0.2v-0.5c0-0.1-0.1-0.2-0.2-0.2
	c-0.2,0-1.7,0.1-2.2,0.1c-0.5,0-1.7-0.1-1.9-0.1c-0.1,0-0.2,0.1-0.2,0.1v0.5c0,0.1,0,0.2,0.2,0.2h0.3c0.2,0,0.6,0,0.8,0.3
	c0.4,0.3,3.1,4.4,3.4,4.8v0.8c0,1.3,0,2.2,0,2.4c0,0.3-0.2,0.5-0.9,0.5h-0.3c-0.1,0-0.1,0.1-0.1,0.1v0.5c0,0.1,0,0.2,0.2,0.2
	c0.1,0,1.5-0.1,2-0.1c0.8,0,2,0.1,2.2,0.1c0.1,0,0.2-0.1,0.2-0.2V62c0-0.1,0-0.1-0.2-0.1h-0.3c-0.4,0-0.8,0-0.8-0.5
	c0-0.3,0-0.9,0-1.5V58z"/>
<path class="st1" d="M131.5,62.9c2.1,0,3.2-1.5,3.2-3.2c0-1.1-0.3-1.7-0.7-2.2c-0.6-0.6-1.4-0.8-2.5-1.2c-0.4-0.2-1.3-0.5-1.6-0.9
	c-0.3-0.3-0.4-0.8-0.4-1.1c0-0.4,0.4-1.4,1.6-1.4c0.7,0,1.2,0.2,1.5,0.6c0.5,0.5,0.7,1.3,0.8,1.6c0,0.1,0.1,0.1,0.1,0.1l0.4-0.1
	c0.1,0,0.1-0.1,0.1-0.1c0-0.3-0.2-1.8-0.2-2.6c0-0.1,0-0.2-0.2-0.2c-0.2,0-0.3,0-0.3,0.1l-0.1,0.2c0,0.1-0.2,0.1-0.4,0
	c-0.3-0.1-0.8-0.3-1.6-0.3c-0.8,0-1.6,0.2-2.1,0.7c-0.5,0.4-1,1.1-1,1.9c0,1.1,0.3,1.8,0.8,2.4c0.7,0.6,1.8,1,2.2,1.2
	c1.2,0.5,2.1,1,2.1,2.3c0,1-1.1,1.6-1.8,1.6c-0.8,0-1.6-0.5-1.9-1.1c-0.4-0.8-0.4-1.2-0.4-1.6c0-0.1-0.1-0.1-0.2-0.2l-0.4,0
	c-0.1,0-0.1,0.1-0.2,0.2c0,0.4-0.2,2.2-0.3,2.8c0,0.1,0,0.2,0.2,0.3c0.2,0,0.3,0,0.3-0.1l0.1-0.2c0-0.2,0.2-0.2,0.3,0
	C129.5,62.5,130.3,62.9,131.5,62.9"/>
<path class="st1" d="M147.9,53.1l2.4,0c0.2,0,0.6,0.1,0.9,0.3c0.4,0.4,1.5,1.6,1.5,1.7c0.1,0.1,0.2,0.1,0.2,0.1l0.4-0.2
	c0,0,0-0.1,0-0.2c0-0.2-0.7-2.1-0.7-2.3c0-0.3-0.1-0.3-0.1-0.3c-0.1,0-0.4,0-0.6,0l-5.1,0c-0.3,0-1.6-0.1-1.9-0.1
	c-0.1,0-0.1,0.1-0.1,0.1V53c0,0.1,0,0.2,0.1,0.2h0.2c0.9,0,1.1,0.1,1.1,0.6c0,0.2,0,1.7,0,2.9V58v3.4c0,0.3-0.1,0.4-1.1,0.4h-0.2
	c-0.1,0-0.2,0-0.2,0.1v0.5c0,0.1,0,0.2,0.1,0.2c0.3,0,1.5-0.1,1.9-0.1c4.8,0,6,0.1,6.2,0.1c0.1,0,0.2-0.1,0.3-0.2l0.8-2.4
	c0-0.1,0-0.1-0.1-0.2l-0.4-0.2c-0.1,0-0.2,0-0.3,0.1c-0.2,0.4-1,1.4-1.2,1.5c-0.8,0.6-1.4,0.6-2.4,0.6c-1,0-1.6-0.1-1.6-1.1
	c0-0.3,0-1.6,0-2.4v-0.8c0.2,0,1,0,1.7,0.2c0.6,0.1,0.7,0.5,0.8,1.1c0,0.1,0.1,0.1,0.1,0.1l0.5,0c0.1,0,0.1,0,0.1-0.1
	c0-0.3-0.1-1-0.1-1.5c0-0.2,0-1.4,0-1.6c0-0.1,0-0.1-0.1-0.1l-0.5,0c-0.1,0-0.1,0-0.1,0.1c0,0.7-0.2,1-0.8,1.2
	c-0.2,0-1.5,0.1-1.7,0.1V53.1z"/>
<path class="st1" d="M154.1,53c0,0.1,0,0.1,0.1,0.1h0.4c1,0,1,0.2,1,0.5c0,0.2,0,2.4,0,2.6c0,0.3,0,4-0.3,5
	c-0.1,0.3-0.4,0.6-1.1,0.6H154c-0.1,0-0.1,0-0.1,0.1v0.5c0,0.2,0,0.2,0.1,0.2c0.1,0,1.4-0.1,1.9-0.1c0.7,0,1.8,0.1,1.9,0.1
	c0.1,0,0.1-0.1,0.1-0.1v-0.5c0-0.1,0-0.2-0.1-0.2h-0.3c-0.7,0-1-0.2-1.1-1c0-0.3,0-3.4,0-3.5c0-0.2,0-3.8,0.1-4h0
	c0.3,0.5,1.4,3.2,1.7,3.9c0.2,0.3,2.1,4.9,2.2,5c0.1,0.1,0.1,0.3,0.3,0.3c0.2,0,0.3-0.2,0.4-0.3c0.1-0.1,1.6-3.4,1.9-4
	c0.4-0.8,2.2-4.6,2.3-4.9h-0.1l0.1,0v4.5c0,0.2,0,3.3,0,3.6c0,0.2-0.2,0.5-0.6,0.5h-0.7c-0.1,0-0.1,0-0.1,0.1v0.5
	c0,0.2,0,0.2,0.1,0.2c0.2,0,1.6-0.1,2.1-0.1c0.8,0,2.1,0.1,2.3,0.1c0.1,0,0.2-0.1,0.2-0.2V62c0-0.1,0-0.1-0.1-0.1h-0.8
	c-0.4,0-0.5-0.4-0.5-0.8c0-0.2,0-3.2,0-3.5c0-0.3,0-3.8,0-4c0-0.2,0.1-0.5,0.4-0.5h0.5c0.1,0,0.2-0.1,0.2-0.2v-0.5
	c0-0.1,0-0.2-0.1-0.2c-0.2,0-0.6,0.1-3,0.1c-0.2,0-0.3,0.1-0.4,0.2c0,0.3-1.5,3.1-1.8,3.8c-0.4,0.9-1.5,3.1-1.7,3.6l-3.3-7.5
	c-0.1-0.2-0.2-0.3-0.4-0.3c-0.3,0-0.8,0.1-1.4,0.1c-0.6,0-1.9-0.1-2.1-0.1c-0.1,0-0.1,0-0.1,0.1V53z"/>
<path class="st1" d="M135,52.2C135.1,52.2,135.1,52.2,135,52.2c0.4,0,1.8,0.2,4.3,0.2h0.9c0.2,0,0.3,0,0.5,0c1.9,0,2.9-0.1,3.2-0.2
	c0.1,0,0.1,0,0.1,0c0,0,0,0,0,0.1c0.2,0.7,0.6,2.1,0.7,2.5c0,0.1,0,0.2-0.1,0.2l-0.4,0.2c-0.1,0-0.2,0-0.2-0.1
	c-0.3-0.6-0.8-1.3-1.4-1.8c-0.6-0.2-1.4-0.2-2-0.2V57c0,2.4,0,4.1,0,4.3c0,0.4,0.2,0.6,0.5,0.6h0.9c0.1,0,0.2,0.1,0.2,0.2v0.5
	c0,0.1,0,0.1-0.2,0.1c-0.2,0-1.6-0.1-2.3-0.1c-0.6,0-2.1,0.1-2.3,0.1c-0.1,0-0.2-0.1-0.2-0.2V62c0-0.1,0-0.2,0.1-0.2h0.9
	c0.3,0,0.5-0.2,0.5-0.4c0.1-0.9,0.1-2.1,0.1-3.5v-4.9c-0.4,0-1.7,0-2.6,0.2c-0.6,0.4-1.1,1.2-1.4,1.8c0,0.1-0.1,0.2-0.2,0.1
	l-0.4-0.2c-0.1,0-0.1-0.1-0.1-0.2C134.4,54.4,134.8,53,135,52.2C135,52.2,135,52.2,135,52.2"/>
<rect x="23.8" y="43.6" class="st1" width="3" height="14.1"/>
<rect x="7.8" y="43.6" class="st1" width="2.9" height="14.1"/>
<rect x="11.6" y="43.6" class="st1" width="3.1" height="14.1"/>
<rect x="15.7" y="43.6" class="st1" width="3.1" height="14.1"/>
<rect x="19.7" y="43.6" class="st1" width="3.1" height="14.1"/>
<polygon class="st1" points="25.5,42.6 9,42.6 17.5,37.4 "/>
<polygon class="st1" points="7.1,42.6 0,42.6 0,37.4 15.6,37.4 "/>
<polygon class="st1" points="19.2,37.4 34.4,37.4 34.4,42.6 27.3,42.6 "/>
<path class="st1" d="M32.3,36.4H2.2c2.9-5.3,8.6-8.9,15-8.9C23.7,27.5,29.3,31,32.3,36.4"/>
<path class="st1" d="M2.3,53.7l-0.3,0.8L2.7,54l0.7,0.5l-0.3-0.8l0.7-0.5H3l-0.3-0.8l-0.3,0.8H1.6L2.3,53.7z M0,49.2l0.7,0.5
	l-0.3,0.8L1.1,50l0.7,0.5l-0.3-0.8l0.7-0.5H1.3l-0.3-0.8l-0.3,0.8H0z M6.8,57.8H5.9L5.6,57l0.7-0.5H5.5l-0.3-0.8l-0.3,0.8H4.1
	L4.8,57l-0.3,0.8H0l0-8.5l0-3.1l0.6-0.5l0.7,0.5l-0.3-0.8l0.7-0.5H0.9l-0.3-0.8l-0.1,0.4l-0.2,0.4H0v-1.3h6.8V57.8z M5.9,57.8H4.5
	l0.7-0.5L5.9,57.8z M0,46.1v-0.8l0.2,0.1l-0.1,0.4L0,46.1z"/>
<rect x="0" y="58.8" class="st1" width="6.8" height="3.8"/>
<rect x="27.8" y="58.8" class="st1" width="6.7" height="3.8"/>
<path class="st1" d="M21.9,61.4l0.7-0.5h-0.8l-0.3-0.8l-0.3,0.8h-0.8l0.7,0.5l-0.3,0.8l0.7-0.5l0.7,0.5L21.9,61.4z M16.8,61.9
	l-0.2,0.6H7.8v-3.8h1.1l-0.2,0.6H7.8l0.7,0.5l-0.3,0.8l0.7-0.5l0.7,0.5l-0.3-0.8l0.7-0.5H9.2L9,58.8h16.5l-0.2,0.6h-0.8l0.7,0.5
	l-0.3,0.8l0.7-0.5l0.7,0.5L26,59.8l0.7-0.5h-0.8l-0.2-0.6h1.1v3.8h-8.9l-0.2-0.6l0.7-0.5h-0.8l-0.3-0.8L17,61.4h-0.8L16.8,61.9z
	 M12.5,61.4l-0.3,0.8l0.7-0.5l0.7,0.5l-0.3-0.8l0.7-0.5h-0.8l-0.3-0.8l-0.3,0.8h-0.8L12.5,61.4z M17.6,62.5h-0.8l0.4-0.3L17.6,62.5z
	"/>
<path class="st1" d="M32.2,53.7l0.7-0.5H32l-0.3-0.8l-0.3,0.8h-0.8l0.7,0.5l-0.3,0.8l0.7-0.5l0.7,0.5L32.2,53.7z M30,57.8L29.7,57
	l0.7-0.5h-0.8l-0.3-0.8L29,56.5h-0.8l0.7,0.5l-0.3,0.8l0.7-0.5L30,57.8L30,57.8z M34.4,57.8H30h-1.3h-0.9V43.6h6.7v1.3h-0.3
	l-0.3-0.8l-0.3,0.8h-0.8l0.7,0.5l-0.3,0.8l0.7-0.5l0.6,0.4v3.1h-0.8l-0.3-0.8l-0.3,0.8h-0.8l0.7,0.5l-0.3,0.8l0.7-0.5l0.7,0.5
	l-0.3-0.8l0.6-0.5V57.8z M34.4,45.3v0.6l-0.2-0.5L34.4,45.3z"/>
<path class="st1" d="M84.6,59.6l-0.4-0.2c-0.1,0-0.1,0-0.2,0.1c-0.3,0.6-1.5,2.1-1.8,2.2c-0.6,0.1-3.1,0-3.4,0c0-0.5,0-3.5,0-3.7
	v-1.3c0-1,0-3,0-3.2c0-0.4,0.1-0.5,0.9-0.5H80c0.1,0,0.1-0.1,0.1-0.1v-0.5c0-0.1,0-0.1-0.1-0.1c-0.2,0-1.5,0.1-2.2,0.1
	c-0.8,0-2-0.1-2.2-0.1c-0.1,0-0.1,0-0.1,0.1V53c0,0.1,0,0.2,0.1,0.2H76c0.8,0,0.9,0.1,0.9,0.5c0,0.2,0,1.6,0,2.5V57
	c0,0.9,0,4.2,0,4.5c0,0.2-0.2,0.4-0.6,0.4H75c-0.4,0-0.8-0.2-1.1-0.6c-0.2-0.2-1.1-2.9-1.5-4.1c-0.3-0.9-1.5-4.2-1.8-5.1
	c0-0.2-0.1-0.3-0.2-0.3s-0.2,0.1-0.3,0.2c-0.2,0.2-0.8,0.6-1.3,0.7c-0.2,0-0.3,0.1-0.2,0.2c0,0.1,0,0.2,0.1,0.2c0.2,0.1,0,0.3,0,0.5
	c-0.1,0.4-1.5,3.5-1.6,3.8c-0.5,1.1-1.7,3.9-1.9,4.1c-0.2,0.3-0.5,0.5-0.9,0.5h-0.3c-0.1,0-0.1,0-0.1,0.1v0.5c0,0.1,0,0.2,0.1,0.2
	c0.2,0,1.3-0.1,1.8-0.1c0.4,0,1.6,0.1,1.8,0.1c0.1,0,0.1-0.1,0.1-0.2V62c0-0.1,0-0.2-0.2-0.2h-0.6c-0.5,0-0.5-0.3-0.4-0.8
	c0.1-0.3,0.8-2.2,0.9-2.4H71c0.2,0.5,0.8,2.4,0.9,2.8c0,0.2-0.1,0.4-0.4,0.4h-0.4c-0.1,0-0.1,0.1-0.1,0.1v0.5c0,0.1,0,0.2,0.2,0.2
	c0.3,0,1.6-0.1,2.1-0.1c0.5,0,2.7,0,3.1,0c0.4,0,0.9,0,1.3,0c0.7,0,5.8,0,6.2,0c0.1-0.4,0.7-2.7,0.7-2.8
	C84.6,59.7,84.6,59.6,84.6,59.6 M67.7,58c0.1-0.2,1.5-3.7,1.6-3.9c0.1-0.2,0.1-0.3,0.2-0.3c0.1,0,0.1,0.1,0.1,0.2
	c0,0.2,1.1,3.6,1.2,3.9H67.7z"/>
</svg>
